HIERARCHY
ROOT Hip
{
  OFFSET 0.0 0.0 0.0
  CHANNELS 6 Xposition Yposition Zposition Xrotation Yrotation Zrotation
  JOINT LowerSpine
  {
    OFFSET 0.0 0.061367 -0.03653
    CHANNELS 3 Xrotation Yrotation Zrotation
    JOINT MiddleSpine
    {
      OFFSET 0.0 0.056002 0.002633
      CHANNELS 3 Xrotation Yrotation Zrotation
      JOINT Chest
      {
        OFFSET 0.0 0.069296 -0.013882
        CHANNELS 3 Xrotation Yrotation Zrotation
        JOINT Neck
        {
          OFFSET 0.0 0.156156 -0.002923
          CHANNELS 3 Xrotation Yrotation Zrotation
          JOINT Head
          {
            OFFSET 0.0 0.088183 0.023986
            CHANNELS 3 Xrotation Yrotation Zrotation
            End Site
            {
              OFFSET 1e-06 0.123215 0.003678
            }
          }
        }
        JOINT LClavicle
        {
          OFFSET 0.014189 0.150698 0.046467
          CHANNELS 3 Xrotation Yrotation Zrotation
          JOINT LShoulder
          {
            OFFSET 0.082893 0.021616 -0.034976
            CHANNELS 3 Xrotation Yrotation Zrotation
            JOINT LForearm
            {
              OFFSET 0.195645 -0.000695 -0.001695
              CHANNELS 3 Xrotation Yrotation Zrotation
              JOINT LHand
              {
                OFFSET 0.163209 0.000474 -0.000977
                CHANNELS 3 Xrotation Yrotation Zrotation
                End Site
                {
                  OFFSET 0.0 0.006864 0.0
                }
              }
            }
          }
        }
        JOINT RClavicle
        {
          OFFSET -0.014189 0.150698 0.046467
          CHANNELS 3 Xrotation Yrotation Zrotation
          JOINT RShoulder
          {
            OFFSET -0.082908 0.021619 -0.034982
            CHANNELS 3 Xrotation Yrotation Zrotation
            JOINT RForearm
            {
              OFFSET -0.195645 -0.000695 -0.001695
              CHANNELS 3 Xrotation Yrotation Zrotation
              JOINT RHand
              {
                OFFSET -0.163209 0.000474 -0.000977
                CHANNELS 3 Xrotation Yrotation Zrotation
                End Site
                {
                  OFFSET 0.0 0.006864 0.0
                }
              }
            }
          }
        }
      }
    }
  }
  JOINT RThigh
  {
    OFFSET -0.072558 0.02774 -0.005953
    CHANNELS 3 Xrotation Yrotation Zrotation
    JOINT RShin
    {
      OFFSET -0.005253 -0.285537 0.0
      CHANNELS 3 Xrotation Yrotation Zrotation
      JOINT RFoot
      {
        OFFSET 0.0 -0.28038 0.0
        CHANNELS 3 Xrotation Yrotation Zrotation
        JOINT RToe
        {
          OFFSET 0.0 -0.030816 0.064441
          CHANNELS 3 Xrotation Yrotation Zrotation
          End Site
          {
            OFFSET 0.0 0.0 0.043231
          }
        }
      }
    }
  }
  JOINT LThigh
  {
    OFFSET 0.072557 0.027741 -0.005953
    CHANNELS 3 Xrotation Yrotation Zrotation
    JOINT LShin
    {
      OFFSET 0.005253 -0.285539 0.0
      CHANNELS 3 Xrotation Yrotation Zrotation
      JOINT LFoot
      {
        OFFSET 0.0 -0.28038 0.0
        CHANNELS 3 Xrotation Yrotation Zrotation
        JOINT LToe
        {
          OFFSET 0.0 -0.030816 0.064441
          CHANNELS 3 Xrotation Yrotation Zrotation
          End Site
          {
            OFFSET 0.0 0.0 0.043231
          }
        }
      }
    }
  }
}
MOTION
Frames: 6
Frame Time: 0.03333333333333333
0.037556 0.602013 0.032205 2.027635 -0.813782 -0.285942 -3.476699 -0.37315 0.137778 0.089089 1.602575 -0.960079 -3.748976 1.240351 -0.990675 -3.684957 -0.344265 0.209439 -0.075815 0.424473 0.054529 0.349433 1.229337 -16.199305 24.967745 -26.455843 -53.393559 11.914392 -23.215027 -2.293921 0.012295 -0.032352 0.058898 0.957764 -0.841057 15.28814 21.956371 26.099751 54.800098 8.057096 32.864494 1.078206 0.352542 -0.048306 0.031972 -0.909423 -2.735697 -0.004248 1.916976 -0.750248 -1.189301 -1.651058 2.12698 1.475805 0.274608 0.223615 -0.087539 4.476923 7.017799 3.435969 3.113298 7.881256 -2.577129 -1.64011 1.166261 0.144253 -0.148655 -0.009689 0.023029 
0.036057 0.600196 0.034805 2.279001 -3.427474 -0.261698 -3.14327 -0.36053 0.588408 -0.285929 0.762236 -0.51047 -3.171024 1.075915 -2.496541 -3.080999 -0.224943 -0.073616 -0.011002 0.230247 0.030644 0.411992 0.98338 -17.133314 26.311926 -27.202866 -53.173004 11.80736 -20.959494 -1.463963 0.009456 -0.030761 0.013174 0.745354 0.402861 14.372696 23.074068 26.241346 53.080177 9.688324 38.734291 2.057271 0.059034 -0.06879 0.012159 -0.724726 -1.416132 0.083744 2.915032 -0.135726 -1.763239 -0.261864 2.331276 1.402607 0.075955 0.030671 -0.000246 6.181586 9.133189 3.848176 2.419577 8.251291 -2.690017 -1.276522 0.643553 0.298407 -0.024215 -0.066924 0.002066 
0.028631 0.600524 0.035398 2.809362 -2.589933 -0.237312 -2.984779 -0.50834 0.482851 -0.673258 0.358569 -0.26701 -3.827863 0.654369 -2.629107 -2.809978 -0.082518 -0.003397 0.002826 0.126684 0.00975 0.641005 0.91633 -17.39238 27.413082 -27.208557 -52.579849 12.811516 -22.588194 -1.208073 0.007422 -0.0194 0.004327 0.696539 0.77611 14.63729 25.069998 25.71405 53.097115 11.371057 39.16312 2.87354 -0.02293 -0.088911 0.001846 -1.753525 -2.166416 -0.138215 3.052728 -1.285709 -1.304555 0.250836 2.398295 1.284421 0.014496 -0.02262 0.023504 5.343463 9.723945 3.827134 3.228483 8.064832 -2.218039 -1.251331 0.260557 0.137027 -0.006062 -0.047688 -0.009307 
0.02163 0.598204 0.035072 2.623965 -2.691497 -0.026125 -2.739825 -0.584571 0.378046 -0.854471 0.309221 -0.145134 -3.928733 0.835875 -2.460397 -2.541457 0.060631 0.010604 0.006554 0.045445 0.000931 0.70025 0.85622 -17.309523 27.147789 -26.912142 -52.749596 12.843811 -22.876389 -1.073768 0.006729 -0.00487 0.000612 0.578989 0.769926 14.732071 24.512461 25.466036 53.871841 11.904168 36.349667 2.892938 -0.054076 -0.095373 -0.003332 -2.209851 -2.168406 0.020159 2.871103 -1.6969 -1.096467 0.291679 2.273842 1.144484 -0.014018 -0.011473 0.042757 5.290936 9.884615 3.871718 3.221735 7.709355 -1.838663 -1.380436 0.139725 0.131235 0.001513 -0.042694 -0.013717 
0.019297 0.592999 0.029441 2.331491 -3.011562 -0.017622 -2.496573 -0.634143 0.281433 -0.98995 0.342474 -0.084627 -3.859983 1.208805 -2.144041 -2.323397 0.135175 0.041852 0.007267 0.008733 -2.2e-05 0.688551 0.815958 -17.021629 26.389933 -26.859694 -53.353371 12.433426 -22.633205 -1.067779 0.005514 0.00307 0.00241 0.423663 0.787089 14.816693 23.03018 25.638866 54.915401 12.03085 31.769369 2.551545 -0.059661 -0.093947 -0.005199 -2.626906 -1.989215 0.327953 2.895764 -1.875457 -0.887257 0.096055 2.121793 1.024738 -0.018818 0.005452 0.051197 5.182347 9.598018 3.906111 2.96834 7.179135 -1.608276 -1.62222 0.113034 0.133492 0.001662 -0.039667 -0.015726 
0.01813 0.58889 0.021131 2.386282 -3.292355 -0.066755 -2.299353 -0.661707 0.197842 -1.140162 0.377496 -0.045519 -3.989674 1.436467 -1.708144 -2.158123 0.18316 0.0708 0.005677 -0.008275 0.002442 0.661062 0.775503 -16.704182 25.720711 -26.758297 -53.838978 12.054055 -22.447845 -1.096451 0.005942 0.0056 0.005149 0.27276 0.753496 14.918602 21.723763 25.692617 55.696732 11.695614 27.282776 2.316511 -0.059107 -0.078264 -0.005126 -3.116285 -2.153666 0.472064 2.937501 -2.164273 -0.610475 -0.149906 1.962846 0.916915 -0.002605 0.025286 0.054319 4.787233 9.057281 3.941232 2.686588 6.606417 -1.412613 -1.837757 0.097445 0.118171 -0.0039 -0.03458 -0.014191 
